<svg id="search" xmlns="http://www.w3.org/2000/svg" viewBox="0 0 1451.34 1451.34"><defs><style>.cls-1{fill:#fff;}.cls-2{fill:#333;}.cls-3{fill:none;stroke:#333;stroke-linecap:round;stroke-miterlimit:10;stroke-width:80px;}</style></defs><title>search</title><path class="cls-1" d="M586.37,1083A495.16,495.16,0,0,1,393.7,131.88,495.15,495.15,0,0,1,779,1044.15,491.88,491.88,0,0,1,586.37,1083Z"/><path class="cls-2" d="M586.37,133a453.34,453.34,0,1,1-177.09,35.72A452.09,452.09,0,0,1,586.37,133m0-80c-295.48,0-535,239.53-535,535s239.53,535,535,535,535-239.53,535-535S881.85,53,586.37,53Z"/><line class="cls-3" x1="950.18" y1="951.82" x2="1389.18" y2="1390.82"/></svg>