<svg id="Слой_18" data-name="Слой 18" xmlns="http://www.w3.org/2000/svg" viewBox="0 0 1451.34 1451.34"><defs><style>.cls-1{fill:#981d23;}</style></defs><title>dish-type-act</title><g id="cutlery"><path class="cls-1" d="M295.61,77.06c-66.57,0-154.87,179.29-154.87,316.16,0,90.21,30.21,139.18,75.35,162.12a99.32,99.32,0,0,1,53.76,98.15l-64.92,663.06a91.12,91.12,0,1,0,181.37,0L321.38,653.49a99.38,99.38,0,0,1,53.76-98.15c45.14-22.94,75.35-71.91,75.35-162.12C450.49,256.35,365.73,77.06,295.61,77.06Z"/><path class="cls-1" d="M889.88,77.06a22.21,22.21,0,0,0-22.2,22.24V372.86a22.33,22.33,0,0,1-44.65,0V99.3a22.22,22.22,0,0,0-22.2-22.24h-.26A22.21,22.21,0,0,0,778.38,99.3V372.86a22.33,22.33,0,0,1-44.66,0V99.3a22.2,22.2,0,0,0-22.19-22.24h-.27A22.2,22.2,0,0,0,689.08,99.3V372.86a22.33,22.33,0,0,1-44.65,0V99.3a22.22,22.22,0,0,0-22.2-22.24,21,21,0,0,0-21.07,21V393.22c0,90.21,30.23,139.18,75.36,162.12a99.32,99.32,0,0,1,53.76,98.15l-64.92,663.06a91.12,91.12,0,1,0,181.38,0L781.82,653.49a99.38,99.38,0,0,1,53.76-98.15c45.12-22.94,75.34-71.91,75.34-162.12V98.07A21,21,0,0,0,889.88,77.06Z"/><path class="cls-1" d="M1252.43,709.6a15.2,15.2,0,0,0,15.21-15.22V103.75a26.69,26.69,0,0,0-26.72-26.69,28.65,28.65,0,0,0-27.55,20.76L1120.88,420.3a328.69,328.69,0,0,0,45.17,276.78,29,29,0,0,0,23.85,12.52l-59.43,606.95a91.13,91.13,0,1,0,181.39,0Z"/></g></svg>