<svg id="Слой_8" data-name="Слой 8" xmlns="http://www.w3.org/2000/svg" viewBox="0 0 1451.34 1451.34"><defs><style>.cls-1,.cls-2{fill:none;stroke:#808285;stroke-miterlimit:10;}.cls-1{stroke-width:80px;}.cls-2{stroke-linecap:round;stroke-width:40px;}</style></defs><title>servings</title><path class="cls-1" d="M470.57,1337.88h510.2c218.39-91.11,377.62-295.67,404.07-540.05H66.5C93,1042.21,252.18,1246.77,470.57,1337.88Z"/><path class="cls-2" d="M774.68,206.63c0,53.25-98,53.25-98,106.51s98,53.25,98,106.51c0,51-98,51-98,102s98,51,98,102"/><path class="cls-2" d="M986.68,216.63c0,53.25-98,53.25-98,106.51s98,53.25,98,106.51c0,51-98,51-98,102s98,51,98,102"/><path class="cls-2" d="M562.68,196.63c0,53.25-98,53.25-98,106.51s98,53.25,98,106.51c0,51-98,51-98,102s98,51,98,102"/></svg>