<svg id="Facebook" xmlns="http://www.w3.org/2000/svg" viewBox="0 0 500 500"><defs><style>.cls-1{fill:#fff;}</style></defs><title>facebook</title><path class="cls-1" d="M363.57,22.93l-58.92-.09c-66.19,0-109,43.88-109,111.81V186.2H136.45a9.27,9.27,0,0,0-9.27,9.27v74.69a9.26,9.26,0,0,0,9.27,9.26h59.24V467.9a9.25,9.25,0,0,0,9.26,9.26h77.29a9.26,9.26,0,0,0,9.26-9.26V279.42h69.26a9.26,9.26,0,0,0,9.27-9.26l0-74.69a9.27,9.27,0,0,0-9.26-9.27H291.5V142.5c0-21,5-31.67,32.37-31.67h39.69a9.27,9.27,0,0,0,9.26-9.27V32.2A9.28,9.28,0,0,0,363.57,22.93Z"/></svg>