<svg id="MAILRU" xmlns="http://www.w3.org/2000/svg" viewBox="0 0 500 500"><defs><style>.cls-1{fill:#fff;}</style></defs><title>mailru</title><path id="path24" class="cls-1" d="M336.35,247.71c-2.84-55.27-43.88-88.51-93.44-88.51h-1.86c-57.19,0-88.9,45-88.9,96.06,0,57.19,38.36,93.32,88.68,93.32,56.09,0,93-41.09,95.65-89.69l-.13-11.18Zm-95-138c38.21,0,74.14,16.9,100.52,43.35v.1c0-12.7,8.54-22.27,20.4-22.27l3,0c18.54,0,22.36,17.56,22.36,23.11l.09,197.4c-1.32,12.93,13.34,19.6,21.46,11.3,31.7-32.57,69.61-167.46-19.71-245.6C306.22,44.23,194.52,56.23,135.11,97.18,72,140.73,31.55,237.14,70.8,327.68c42.79,98.76,165.23,128.21,238,98.83,36.85-14.88,53.86,34.93,15.59,51.21-57.82,24.63-218.78,22.14-294-108.1C-20.36,281.68-17.67,127,117.07,46.79,220.14-14.56,356,2.42,438,88c85.65,89.45,80.64,257-2.89,322.1-37.85,29.59-94.08.8-93.72-42.31l-.39-14.1c-26.35,26.15-61.43,41.41-99.64,41.41-75.5,0-141.94-66.41-141.94-141.92,0-76.24,66.44-143.46,141.94-143.46h0"/></svg>