<svg id="VK" xmlns="http://www.w3.org/2000/svg" viewBox="0 0 500 500"><defs><style>.cls-1{fill:#fff;}</style></defs><title>vk</title><path class="cls-1" d="M482.28,358a33,33,0,0,0-1.59-3.05q-12.21-22-46.69-54l-.49-.49-.24-.24-.25-.24h-.24Q417.14,285,413,279.88q-7.59-9.78-3.43-19.81,2.93-7.57,22-32,10-13,15.89-20.78,42.3-56.24,36.67-71.87L482.66,133c-1-1.47-3.51-2.81-7.58-4s-9.29-1.42-15.65-.61L389,128.8a9.16,9.16,0,0,0-4.89.12l-3.18.74-1.22.61-1,.74a10.54,10.54,0,0,0-2.69,2.56,16.6,16.6,0,0,0-2.44,4.28,400,400,0,0,1-26.16,55q-9.06,15.15-16.63,26.28t-12.71,16.37a89.23,89.23,0,0,1-9.29,8.44q-4.15,3.18-6.36,2.69c-1.46-.33-2.85-.65-4.16-1a16.21,16.21,0,0,1-5.49-6,26.87,26.87,0,0,1-2.82-9.54c-.48-3.83-.77-7.12-.85-9.9s0-6.68.12-11.73.25-8.48.25-10.27q0-9.28.36-20.17t.61-17.23q.25-6.36.25-13.45a56.26,56.26,0,0,0-.86-11.12,37.75,37.75,0,0,0-2.56-7.83,13.24,13.24,0,0,0-5-5.87,28.55,28.55,0,0,0-8.19-3.3q-13-2.92-33-3.17-45.46-.5-58.43,5.87a32.87,32.87,0,0,0-9.29,7.33q-4.4,5.37-1.22,5.86,14.67,2.21,20.78,10.51l1.47,2.94q1.71,3.18,3.42,11.25a112.79,112.79,0,0,1,2.2,17.84,191.11,191.11,0,0,1,0,30.56q-1.23,12.72-2.32,19.8a39.92,39.92,0,0,1-3.3,11.49,47.82,47.82,0,0,1-2.94,5.38,4.25,4.25,0,0,1-1.22,1.22,18.35,18.35,0,0,1-6.6,1.23c-2.28,0-5-1.15-8.31-3.43a58.8,58.8,0,0,1-10.15-9.41,127.45,127.45,0,0,1-11.86-16.75q-6.6-10.75-13.69-25.42l-3.91-7.09q-3.66-6.86-10-19.93T114.49,140a16.1,16.1,0,0,0-5.87-7.82l-1.22-.74a17,17,0,0,0-3.92-2.08,26.45,26.45,0,0,0-5.62-1.59l-67,.49q-10.27,0-13.94,4.65l-1,1.46a7.93,7.93,0,0,0-.73,3.92,19.68,19.68,0,0,0,1.46,6.6Q31.36,179.4,48.6,211.42T78.54,263q12.72,19.56,25.92,36.92t17.48,22.25q4.28,4.89,6.72,7.33l6.11,5.87A146.2,146.2,0,0,0,152,349.42a291.44,291.44,0,0,0,25.18,16.14,136.19,136.19,0,0,0,32.15,13,111.16,111.16,0,0,0,35.69,4h28.12q8.55-.74,13-5.38l1-1.22a16.53,16.53,0,0,0,1.83-4.52,24.91,24.91,0,0,0,.86-6.72,80.45,80.45,0,0,1,1.58-18.95q1.83-8.43,4.16-12.71a31.21,31.21,0,0,1,5.26-7.21,20.83,20.83,0,0,1,4.16-3.54,16.44,16.44,0,0,1,1.95-.86q5.87-1.95,13.82,3.79a81.46,81.46,0,0,1,14.91,14.18q7,8.44,16.74,18.95T369.47,374l4.88,2.93a59.72,59.72,0,0,0,12.72,5.38q7.81,2.44,13.69,1.22l62.58-1c6.19,0,11-1,14.43-3.06s5.45-4.28,6.11-6.73a18.9,18.9,0,0,0,.12-8.31A30.66,30.66,0,0,0,482.28,358Z"/></svg>