<svg id="Слой_20" data-name="Слой 20" xmlns="http://www.w3.org/2000/svg" viewBox="0 0 1451.34 1451.34"><defs><style>.cls-1{fill:#818285;}</style></defs><title>tag</title><path class="cls-1" d="M1256,114.88,1041.74,57.47A144.56,144.56,0,0,0,902.09,94.89l-83.23,83.23a.92.92,0,0,1-1.29,0,.89.89,0,0,0-1.28,0L69,925.46c-43.46,43.46-43.46,114.57,0,158L355.42,1370c43.46,43.47,114.57,43.47,158,0l635-635,113-113,83.87-83.87a144.58,144.58,0,0,0,37.42-139.65l-57.41-214.25A98,98,0,0,0,1256,114.88Zm-56.62,231a75.2,75.2,0,1,1,0-106.36A75.2,75.2,0,0,1,1199.37,345.9Z"/></svg>