<svg id="Слой_9" data-name="Слой 9" xmlns="http://www.w3.org/2000/svg" viewBox="0 0 1451.34 1451.34"><defs><style>.cls-1,.cls-2{fill:#808285;}.cls-2{stroke:#808285;stroke-linecap:round;stroke-miterlimit:10;stroke-width:80px;}</style></defs><title>cal</title><path class="cls-1" d="M475.37,251.5H317.23a31.21,31.21,0,1,0,0,62.42H475.37a31.21,31.21,0,1,0,0-62.42Z"/><path class="cls-1" d="M475.37,501.2H317.23a31.22,31.22,0,1,0,0,62.43H475.37a31.22,31.22,0,1,0,0-62.43Z"/><path class="cls-1" d="M413,376.35H254.8a31.22,31.22,0,0,0,0,62.43H413a31.22,31.22,0,0,0,0-62.43Z"/><path class="cls-1" d="M1226.57,532.42H1037.21V407.56c0-54.82-67.06-83.69-106.58-44.12L680.94,613.13a62.42,62.42,0,0,0,0,88.28L824.08,844.55,649.73,1018.9A62.42,62.42,0,0,0,738,1107.18L956.5,888.69a62.42,62.42,0,0,0,0-88.28L813.36,657.27l99-99v36.58a62.43,62.43,0,0,0,62.43,62.43h251.78a62.43,62.43,0,1,0,0-124.85Z"/><path class="cls-1" d="M806.53,215.16A62.45,62.45,0,0,0,727.76,223L556.09,394.64a62.42,62.42,0,1,0,88.27,88.27l135.5-135.49L825.5,380.3l61-61A124.06,124.06,0,0,1,921.87,295Z"/><path class="cls-1" d="M636.81,745.54a123.7,123.7,0,0,1-31.95-56.33L275.17,1018.9a62.42,62.42,0,0,0,88.28,88.28l317.49-317.5Z"/><circle class="cls-1" cx="1068.43" cy="251.5" r="93.64"/><line class="cls-2" x1="87" y1="1293.48" x2="1357" y2="1293.48"/></svg>