<svg id="comments-like-red" xmlns="http://www.w3.org/2000/svg" viewBox="0 0 1451.34 1451.34"><defs><style>.cls-1{fill:#eb212e;}</style></defs><title>comments-like-active</title><path class="cls-1" d="M1216.47,235C1085.32,103.82,911.14,31.42,725.62,31.42s-359.7,72.11-490.85,203.26c-253,253-271.3,657.17-45.94,931.09-31.11,63.69-68,106.14-109.34,126.5A64.78,64.78,0,0,0,98.1,1414.4a331.35,331.35,0,0,0,49.15,3.78h0c85.2,0,174.76-29.37,249.49-80.84a695,695,0,0,0,328.88,82.58c185.52,0,359.7-72.11,490.85-203.26s203.26-305.61,203.26-490.84S1347.61,366.11,1216.47,235Zm-55.54,926.15c-116.32,116.32-271,180.29-435.31,180.29a615.47,615.47,0,0,1-311.72-84.62,39.1,39.1,0,0,0-43.91,2.62c-89,68.91-178.54,79.09-217.8,80,46.82-34.89,86.07-89,118.93-164.29a39.51,39.51,0,0,0-6.69-41.87C49.25,890.11,60.59,519.65,290.31,289.93c116.32-116.32,271-180.29,435.31-180.29,164.59,0,319,64,435.31,180.29C1401.12,530.41,1401.12,921.22,1160.93,1161.12Z"/><path class="cls-1" d="M901.84,407.7a233.59,233.59,0,0,0-166.33,68.91l-9.89,9.89-9.89-9.89a234.83,234.83,0,0,0-332.07-.29c-44.49,44.49-68.92,103.52-68.63,166,0,62.81,24.72,121.55,68.92,166L697.7,1122.16a39,39,0,0,0,55.25.29L1067.58,809A234.95,234.95,0,0,0,901.84,407.7ZM1012,753.44,725.33,1039,439.2,752.86a156.27,156.27,0,1,1,221-221L698,569.66a39.14,39.14,0,0,0,55.54,0l37.51-37.51a156.21,156.21,0,0,1,221.29,0c29.66,29.66,45.94,68.92,45.65,110.5A155.52,155.52,0,0,1,1012,753.44Z"/></svg>