<svg id="Слой_13" data-name="Слой 13" xmlns="http://www.w3.org/2000/svg" viewBox="0 0 1451.34 1451.34"><defs><style>.cls-1{fill:#818285;}</style></defs><title>cooking</title><path class="cls-1" d="M726.38,28.5H713.89A55.47,55.47,0,0,0,658.42,84V459.05a24.31,24.31,0,0,1-24.24,24.24H623.32a23.91,23.91,0,0,1-23.76-24.24V84c0-30.63-14.46-55.47-45.09-55.47h0C523.83,28.5,508.4,53.34,508.4,84V459.05c0,13.33-10,24.24-23.36,24.24H474.76a24.31,24.31,0,0,1-24.24-24.24V84A55.48,55.48,0,0,0,395.05,28.5H382.56a11.79,11.79,0,0,0-11.75,11.75V550c0,76.55,47.46,142.54,114.41,170v633.6a69.45,69.45,0,0,0,69.25,69.25h0a69.46,69.46,0,0,0,69.25-69.25V720c66.94-27.48,114.41-93.47,114.41-170V40.25A11.79,11.79,0,0,0,726.38,28.5Z"/><path class="cls-1" d="M1068.53,28.5h0c-118.79,0-216,268.61-216,522.1V936.08a12,12,0,0,0,12,12H942v405.51a69.45,69.45,0,0,0,69.24,69.25h0a69.45,69.45,0,0,0,69.25-69.25V40.5A12,12,0,0,0,1068.53,28.5Z"/></svg>