<svg xmlns="http://www.w3.org/2000/svg" width="32" height="22.45" viewBox="0 0 32 22.45"><defs><style>.a{fill:red;}.b{fill:#fff;}</style></defs><g transform="translate(0.001 -3.56)"><path class="a" d="M31.343,7.066A4,4,0,0,0,28.517,4.24C26.01,3.56,16,3.56,16,3.56s-10.012,0-12.518.653A4.12,4.12,0,0,0,.654,7.066,42.613,42.613,0,0,0,0,14.812,42.27,42.27,0,0,0,.654,22.5,4,4,0,0,0,3.48,25.33c2.533.68,12.518.68,12.518.68s10.012,0,12.518-.653a4,4,0,0,0,2.826-2.826A42.56,42.56,0,0,0,32,14.812,40.341,40.341,0,0,0,31.343,7.066Z" transform="translate(0)"/><path class="b" d="M9.61,17.959V8.36l8.319,4.853Z" transform="translate(3.202 1.599)"/></g></svg>