<svg id="Слой_19" data-name="Слой 19" xmlns="http://www.w3.org/2000/svg" viewBox="0 0 1451.34 1451.34"><defs><style>.cls-1,.cls-3{fill:#818285;}.cls-1,.cls-2{stroke:#808285;stroke-miterlimit:10;}.cls-1{stroke-width:35px;}.cls-2{fill:none;stroke-linecap:round;stroke-width:60px;}</style></defs><title>ingredients</title><path class="cls-1" d="M115.56,530.87A32.59,32.59,0,0,0,83,563.46V830.61c0,.1,0,.19,0,.29v534.87a32.6,32.6,0,0,0,32.59,32.6H1335.79a32.6,32.6,0,0,0,32.59-32.6V830.89c0-.08,0-.16,0-.25V563.45a32.6,32.6,0,0,0-32.59-32.59H115.56Zm580.48,0,607.15,65.19V830.92c0,.08,0,.17,0,.25v502H148.14v-502c0-.09,0-.19,0-.28V596.06h1155Z"/><line class="cls-2" x1="269.85" y1="964.63" x2="1181.5" y2="964.63"/><line class="cls-2" x1="269.85" y1="777.82" x2="1181.5" y2="777.82"/><line class="cls-2" x1="269.85" y1="1151.43" x2="1181.5" y2="1151.43"/><path class="cls-3" d="M1264.88,544a28.46,28.46,0,0,0-28.46-28.46h-88.76q13.71-11.83,26.95-23.89c31.24-28.52,48.65-68.25,49-111.87a168.35,168.35,0,0,0-19.53-79.84,169.73,169.73,0,0,1,112.86,7.7,28.46,28.46,0,1,0,22.54-52.26,227.49,227.49,0,0,0-69-17.63c14.46-8.62,29.17-16.82,44.15-24.43a28.47,28.47,0,0,0-25.8-50.75,806.68,806.68,0,0,0-80.29,46.89,226.94,226.94,0,0,0-8.39-106.68,28.46,28.46,0,0,0-54.11,17.68,169.89,169.89,0,0,1-2.61,113.11,168.21,168.21,0,0,0-77.73-26.7c-43.49-3.56-84.62,10.15-115.86,38.66C870.31,318.18,796.17,405.31,738,494.05a332.31,332.31,0,0,0-2.13-73.93c-8.75-62.34-34-118.93-71.18-159.34-39.8-43.3-88.52-63.39-137.17-56.55-33.43,4.69-63.57,21.71-87.92,49.47A78,78,0,0,1,475.31,179a28.46,28.46,0,1,0-30.54-48,136,136,0,0,0-20,15.5,137.38,137.38,0,0,0-60.63-52h0a137.72,137.72,0,0,0-136.33,15.16,28.44,28.44,0,0,0-11.43,26.14A137.07,137.07,0,0,0,382.5,254.32a133.2,133.2,0,0,0,3,20.46c-36.64-3.86-70.28,4.09-98,23.3-35.13,24.36-57,64.94-61.53,114.29-3,32.57,1.72,68.1,13.35,103.12H170.69A28.47,28.47,0,0,0,142.22,544M320.54,194a80.61,80.61,0,0,1-43.68-47.38A80.23,80.23,0,0,1,385,194,80.6,80.6,0,0,1,320.54,194Zm-.62,150.86c23.54-16.31,51-15.54,69.85-12A87,87,0,0,0,476,299.16c11.5-15.4,31.14-34.59,59.47-38.56,29.57-4.14,60.6,9.59,87.36,38.7,29.41,32,49.55,77.71,56.71,128.71,4.21,30.09,3.55,59.94-1.83,87.49H300C270,444.28,277.53,374.27,319.92,344.88ZM199.15,572.43H1208m-71.72-122.86c-23,21-47.21,41.43-72.25,61l-28-30.7a28.45,28.45,0,0,0-44.25,35.6H792.11q19-28.38,40.15-56.32l23.16,25.37a28.46,28.46,0,0,0,42-38.38L868.06,414c21.84-26.33,44.83-51.9,68.62-76.35l25.14,27.55a28.47,28.47,0,0,0,42-38.38l-26.53-29.06c3.65-3.42,7.29-6.85,11-10.2,19.42-17.73,45.28-26.25,72.79-24,28.31,2.34,54.93,15.7,75,37.64s30.92,49.65,30.68,78.06C1166.48,406.87,1155.65,431.84,1136.23,449.57Z"/></svg>