<svg xmlns="http://www.w3.org/2000/svg" xmlns:xlink="http://www.w3.org/1999/xlink" viewBox="0 0 790 160"><defs><style>.cls-1{fill:url(#Безымянный_градиент_5);}.cls-2{fill:#fff;}</style><linearGradient id="Безымянный_градиент_5" y1="79.97" x2="790" y2="79.97" gradientUnits="userSpaceOnUse"><stop offset="0" stop-color="#fdd514"/><stop offset="0.5" stop-color="#de2726"/><stop offset="1" stop-color="#ae3b8d"/></linearGradient></defs><title>instagram-banner</title><g id="Слой_1" data-name="Слой 1"><rect class="cls-1" y="-0.03" width="790" height="160" rx="80"/></g><g id="Слой_2" data-name="Слой 2"><path class="cls-2" d="M154.44,60.33a33.12,33.12,0,0,0-2.11-11,23.06,23.06,0,0,0-13.22-13.22,33.09,33.09,0,0,0-11-2.1c-4.82-.22-6.36-.27-18.63-.27s-13.82,0-18.64.27a33.09,33.09,0,0,0-11,2.1A23.06,23.06,0,0,0,66.68,49.36a33.14,33.14,0,0,0-2.1,11c-.22,4.82-.27,6.36-.27,18.64s0,13.81.27,18.63a33.21,33.21,0,0,0,2.1,11A23.08,23.08,0,0,0,79.9,121.79a33.06,33.06,0,0,0,11,2.11c4.82.22,6.36.27,18.64.27s13.81,0,18.63-.27a33.06,33.06,0,0,0,11-2.11,23,23,0,0,0,13.22-13.21,33.18,33.18,0,0,0,2.11-11c.21-4.82.27-6.36.27-18.63S154.65,65.15,154.44,60.33Zm-8.14,36.9a25,25,0,0,1-1.56,8.4,15,15,0,0,1-8.58,8.58,25.21,25.21,0,0,1-8.39,1.55c-4.76.22-6.19.26-18.26.26s-13.5,0-18.27-.26a25.21,25.21,0,0,1-8.39-1.55,15,15,0,0,1-8.58-8.58,25,25,0,0,1-1.56-8.4C72.5,92.47,72.45,91,72.45,79s0-13.5.26-18.27a24.93,24.93,0,0,1,1.56-8.39,14.94,14.94,0,0,1,8.58-8.58,25.13,25.13,0,0,1,8.39-1.56c4.77-.21,6.2-.26,18.27-.26h0c12.06,0,13.49.05,18.26.27a24.94,24.94,0,0,1,8.39,1.55,14.94,14.94,0,0,1,8.58,8.58,24.93,24.93,0,0,1,1.56,8.39c.22,4.77.26,6.2.26,18.27S146.52,92.47,146.3,97.23Z"/><path class="cls-2" d="M109.51,55.76A23.21,23.21,0,1,0,132.72,79,23.22,23.22,0,0,0,109.51,55.76Zm0,38.27A15.07,15.07,0,1,1,124.57,79,15.06,15.06,0,0,1,109.51,94Z"/><path class="cls-2" d="M139.06,54.84a5.43,5.43,0,1,1-5.43-5.42A5.42,5.42,0,0,1,139.06,54.84Z"/></g><g id="Слой_3" data-name="Слой 3"><path class="cls-2" d="M186.22,103.24a8.9,8.9,0,0,1-1.42-5,16.3,16.3,0,0,1,.8-5c1.77-4.86,12.21-26.1,18.66-37.33a5.92,5.92,0,0,1-3.45-3.72A1.76,1.76,0,0,1,202.67,50c11.5.62,22.56-2.39,27.69-2.39,5.75,0,6.82,1.95,6.82,4.6,0,2.39-1.69,5.75-3.63,9.29-5.66,10-8,13.54-12.3,21.68-3,5.66-5.84,11.94-8.76,18.49-.62,1.41-2,1.86-3.09.26a7.82,7.82,0,0,1-1.51-4.51A18.38,18.38,0,0,1,209,91.92c.71-2,2-5,3.63-8.41,4.07-8.14,10.62-20.7,15.3-28.84-5.39.53-11.94,2-15.66,2.39a39,39,0,0,1-2.21,5.22c-16.63,30.61-16.81,31.32-21,40.61C188.52,104.39,187.28,104.74,186.22,103.24Z"/><path class="cls-2" d="M251.24,101.74a10.18,10.18,0,0,1-5.31-1.51,14.11,14.11,0,0,1-4.86,2.74,10.76,10.76,0,0,1-3.19.54A10.91,10.91,0,0,1,229.12,99a12.41,12.41,0,0,1-2.38-7.69c0-9.73,10.61-24.33,18.66-24.33,3.54,0,4.78,1.5,6.46,3.89a19.9,19.9,0,0,0,1.33,1.5A7.74,7.74,0,0,1,256,78.82c0,8.85-4.69,15.57-7,18.32a2.43,2.43,0,0,0,1.33.44c3.54,0,6.1-4.51,8.84-9,.54-.79.89-1.15,1.42-1.15a2.43,2.43,0,0,1,2.21,2.48A12.49,12.49,0,0,1,261.24,95C259.38,98.29,256.11,101.74,251.24,101.74Zm-15.75-2.66c1.51,0,3.54-1.33,5.49-3.36A16.83,16.83,0,0,1,236.29,85a23.91,23.91,0,0,0-2.65,10.26C233.64,96.78,233.9,99.08,235.49,99.08Zm7.08-14.6A16.94,16.94,0,0,0,244,91.65c1.77-3,5.13-9.64,5.13-16,0-.62,0-2.57-.27-2.57C247.08,73.07,242.57,77.58,242.57,84.48Z"/><path class="cls-2" d="M296,94.13c-3.36,5.22-9.47,8.76-16.72,11.41C274.6,117,268.14,130.4,261,133.76c-2.12.8-4.33.45-6.19-2a12.56,12.56,0,0,1-2.57-6.9c0-8,8.59-17.08,19.38-20.79l1.15-2.92a12,12,0,0,1-6.64,2.21c-5,0-8-3.63-8-8.94,0-12.65,14.95-27.25,23.62-27.25a5.75,5.75,0,0,1,5.67,3.72c.35-.62.88-1.5,1.41-2.48,1.06-2,2.66-1.94,3.81-.62a7.48,7.48,0,0,1,1.41,4.52c0,2.38-1,4.77-3.18,9.2-2.83,5.57-6.37,12-9.29,18.75A44.68,44.68,0,0,0,295,88.38c1.15-1.51,2.74-1.51,2.74.44A9.69,9.69,0,0,1,296,94.13Zm-35.3,24.68c-2.57,4.34-3.72,8.49-2.83,9.29.79.62,3-2,5.75-6.81A82,82,0,0,0,269,109.88,30.08,30.08,0,0,0,260.71,118.81Zm17.78-31.94c3.45-6,5-10.35,5-12.65,0-1.06-.26-1.59-.88-1.59-3,0-16.63,13.89-16.63,24.15,0,1.68.35,2.83,1.15,2.83C270,99.7,274.16,94.3,278.49,86.87Z"/><path class="cls-2" d="M310.34,71.92a11.09,11.09,0,0,1-.09,1.77c3.8-3.54,8.05-6.46,11.24-6.46,2.56,0,4.95,3.1,4.95,6.46,0,2-1.59,4.78-4.42,9.73-2.83,4.51-5.84,10.35-5.84,13.63,0,1.86.62,3,1.77,3,3,0,7.61-5.76,10.79-11.68.89-1.68,2.12-1.59,2.92-.36.71,1.06.8,3.81-.44,6.2-2.48,4.86-8.94,9.55-14.25,9.55-5.92,0-8.49-3-8.49-7.61,0-4.77,4.07-12.91,7.52-18.4,1.86-2.92,3.27-5.22,2.66-5.22-.8,0-5.14,2.48-10,8-4.87,5.13-8.85,13.8-12.48,21.77-.62,1.41-1.77,1.94-3.18.53a6.45,6.45,0,0,1-1.95-4.87,16.29,16.29,0,0,1,.8-4.6c1.68-5,8.49-17.34,14-25.57,1.15-1.68,2.47-1.59,3.36,0A8.08,8.08,0,0,1,310.34,71.92Z"/><path class="cls-2" d="M353,103.77c-5.22,0-7.87-2.56-8.23-6.55-3,3.37-7,6.11-11.5,6.11S327,100,327,96.16a17.18,17.18,0,0,1,1.15-6.1,99.61,99.61,0,0,1,11.94-22.12,2.24,2.24,0,0,1,3.81,0A6.6,6.6,0,0,1,345.2,72c0,3.63-6.46,13.89-9.56,20.7-1.59,3.54-1.86,6.81.09,6.81,2.3,0,7-6,11.5-13.09,5.22-8.49,7.52-14.51,10.71-18.58,1.23-1.68,2.65-2,3.71-.53a7.45,7.45,0,0,1,1.33,4.6c0,3-1.86,6.9-5,12-2.56,4.16-6,10.18-6,13.63,0,1.59.53,2.48,1.68,2.48,2.92,0,7.43-6.11,10.62-11.68.88-1.51,2.38-1.77,3.09-.09a7.76,7.76,0,0,1-.62,5.93C364.22,99.26,358.47,103.77,353,103.77Z"/><path class="cls-2" d="M404.12,103.77c-5.22,0-7.88-2.56-8.23-6.55-2.74,3.28-6.37,6.37-10.26,6.37s-6-2.92-6.29-6.37c-2.83,3.19-6.45,6.11-10.35,6.11-4.15,0-6.28-3.19-6.28-7.17a17.4,17.4,0,0,1,1.15-6.1,96.1,96.1,0,0,1,11.77-21.77c.71-1,1.15-1.23,1.95-1.23,2.3,0,3,3.18,3,4.77A14.8,14.8,0,0,1,378,80.06c-2.57,4.16-7.79,12.92-7.79,17.34,0,1.24.18,2.12.8,2.12,1.59,0,6.46-6.54,10.7-13.09,5.31-8.58,7.61-14.51,10.71-18.58a2.44,2.44,0,0,1,2-1.15c1.95,0,3.1,3.28,3.1,4.78,0,4.25-1.86,7.34-5,12.47a74.26,74.26,0,0,0-4.6,8.5,11.79,11.79,0,0,0-1.24,5c0,1.33.26,2.39,1.06,2.39,1.5,0,6.37-6.81,10.53-13.36C403.67,77.94,406,72,409.07,67.85a2.33,2.33,0,0,1,2-1.15c2.22,0,3,3.28,3,4.78a12.12,12.12,0,0,1-1.32,6.19c-1.77,3.81-5.67,9.12-8.23,14.78a14.07,14.07,0,0,0-1.33,5.13c0,1.5.44,2.48,1.51,2.48,3.27,0,8.13-5.84,11.41-11.68.35-.62.71-.89,1.24-.89,1.32,0,1.68,1.51,1.68,2.66A8.69,8.69,0,0,1,418,94.22C415.44,99.26,409.6,103.77,404.12,103.77Z"/><path class="cls-2" d="M440.12,103.77c-5.22,0-7.87-2.56-8.22-6.55-3,3.37-7,6.11-11.5,6.11s-6.29-3.36-6.29-7.17a17.4,17.4,0,0,1,1.15-6.1,99.29,99.29,0,0,1,11.95-22.12,2.23,2.23,0,0,1,3.8,0A6.6,6.6,0,0,1,432.34,72c0,3.63-6.46,13.89-9.56,20.7-1.59,3.54-1.85,6.81.09,6.81,2.3,0,7-6,11.5-13.09,5.22-8.49,7.52-14.51,10.71-18.58,1.24-1.68,2.65-2,3.71-.53a7.45,7.45,0,0,1,1.33,4.6c0,3-1.86,6.9-4.95,12-2.57,4.16-6,10.18-6,13.63,0,1.59.53,2.48,1.68,2.48,2.92,0,7.43-6.11,10.62-11.68.88-1.51,2.39-1.77,3.09-.09a7.79,7.79,0,0,1-.61,5.93C451.36,99.26,445.61,103.77,440.12,103.77Z"/><path class="cls-2" d="M478.7,72.81c1.32,2.92-.09,6.19-1.77,9.64a29.1,29.1,0,0,0-1.6,3.63c-.61,1.68-1.41,1.85-3.18,1a5.94,5.94,0,0,1-3.1-5c0-1.15.45-2.92,2-6.55.88-1.77,1.5-3.36,1.15-3.71-1.06-.89-6.81,4.86-10.35,12a24.06,24.06,0,0,0-2.66,9.91c0,3.89,1.59,6.28,4,6.37,6.64.08,12.74-6.73,16.28-12,.8-1.32,2.13-1.68,2.66-.17A7,7,0,0,1,481,93.77a22.33,22.33,0,0,1-17.43,9.74c-8.14.08-12.65-5.14-12.65-12.21A22.31,22.31,0,0,1,453.66,81c4.51-9.11,11.5-13.89,16.63-13.89C473.56,67.14,477.28,70.15,478.7,72.81Z"/><path class="cls-2" d="M502.41,88.2c0,8.49-7.17,15.66-16.46,15.66-5.93,0-8.76-3.8-8.76-8.4a13.76,13.76,0,0,1,1.15-5.31c1.68-4.52,4.6-9.65,11.41-21.94A1.89,1.89,0,0,1,491.7,67c2,0,3.54,3.18,3.54,5.57s-1.5,5.66-3.1,8.76a12.6,12.6,0,0,1,3.1-.35A7,7,0,0,1,502.41,88.2ZM492.76,85a5.22,5.22,0,0,0-3.8,1.59,19,19,0,0,0-4,10.17c0,2,.62,3.28,1.59,3.28,3.27,0,8-6.46,8-11.68C494.53,86.43,493.91,85,492.76,85Z"/><path class="cls-2" d="M523.19,102.8a6.48,6.48,0,0,1-1.94-4.87,16.24,16.24,0,0,1,.79-4.6c.36-.88.8-2.12,1.42-3.45-1.77-.18,0-4.6,2.48-4.95,2.92-5.58,6.72-12.12,10.08-17.17,1.15-1.68,2.48-1.59,3.36,0a9.58,9.58,0,0,1,1.33,4.69,8.73,8.73,0,0,1-1.24,4.6c-1,1.77-2.12,3.81-3.36,6a65.67,65.67,0,0,0,8-2,98.56,98.56,0,0,1,7-11.94c1.33-1.77,2.39-2,3.54-.62a6.5,6.5,0,0,1,1.5,4.42c0,3-1.68,6.46-4.33,11.15-3.36,5.66-5.66,10.88-5.66,13.71,0,1.42.35,2.22,1.24,2.22,3.53,0,8.75-6,11.5-12,.79-1.68,2.12-1.23,2.92.36s.53,3.54-.53,5.84a17.7,17.7,0,0,1-14.69,9.29c-5.31,0-7.79-3.1-7.79-7.52A17.93,17.93,0,0,1,540,90.15a36.62,36.62,0,0,1,1.51-3.63c-2.57.62-5.4,1.24-8.14,1.77-2.57,4.78-5.13,9.82-7,14C525.76,103.68,524.61,104.21,523.19,102.8Z"/><path class="cls-2" d="M581.76,66.88c3.19,0,5.13,1.59,5.93,3.89L589.37,68c1.06-1.77,2.57-1.86,3.63-.62,1.5,1.77,2.3,5.66,0,10.26-2.3,4.87-9.73,14.51-9.73,20.44,0,1.33.35,2.12,1.23,2.12,3.19,0,7.61-6,10.53-11.76,1-1.77,1.77-1.86,2.66,0a7.36,7.36,0,0,1-.36,5.75c-2.3,4.86-8,9.55-13.36,9.55-4.42,0-7-2.3-7.69-5.57-2.57,2.47-6.55,5.22-10.09,5.22-5.22,0-8.05-3.81-8.05-9,0-3.8,1.59-8.76,4.78-13.18C570,71,577.25,66.88,581.76,66.88Zm-3.1,19.82c3.45-6,5.05-10.35,5.05-12.66,0-1.06-.18-1.68-1.06-1.68-1.77,0-7.88,5.58-12.39,12.83-2.65,4.16-4.16,8.85-4.16,11.68,0,1.59.36,2.65,1.24,2.65C570.26,99.52,574.33,94.13,578.66,86.7Z"/><path class="cls-2" d="M612.64,102.8a6.45,6.45,0,0,1-1.95-4.87,15.94,15.94,0,0,1,.8-4.6c.35-.88.79-2.12,1.41-3.45-1.77-.18,0-4.6,2.48-4.95,2.92-5.58,6.72-12.12,10.08-17.17,1.15-1.68,2.48-1.59,3.37,0a9.68,9.68,0,0,1,1.32,4.69,8.73,8.73,0,0,1-1.24,4.6c-1,1.77-2.12,3.81-3.36,6a65.67,65.67,0,0,0,8.05-2,99.9,99.9,0,0,1,7-11.94c1.33-1.77,2.39-2,3.54-.62a6.45,6.45,0,0,1,1.51,4.42c0,3-1.69,6.46-4.34,11.15-3.36,5.66-5.66,10.88-5.66,13.71,0,1.42.35,2.22,1.24,2.22,3.54,0,8.76-6,11.5-12,.79-1.68,2.12-1.23,2.92.36s.53,3.54-.53,5.84a17.7,17.7,0,0,1-14.69,9.29c-5.31,0-7.78-3.1-7.78-7.52a17.67,17.67,0,0,1,1.15-5.84,34.11,34.11,0,0,1,1.5-3.63c-2.57.62-5.4,1.24-8.14,1.77-2.57,4.78-5.13,9.82-7,14C615.2,103.68,614.05,104.21,612.64,102.8Z"/><path class="cls-2" d="M671.2,66.88c3.19,0,5.13,1.59,5.93,3.89L678.81,68c1.06-1.77,2.57-1.86,3.63-.62,1.5,1.77,2.3,5.66,0,10.26-2.3,4.87-9.73,14.51-9.73,20.44,0,1.33.35,2.12,1.23,2.12,3.19,0,7.61-6,10.53-11.76,1-1.77,1.77-1.86,2.66,0a7.36,7.36,0,0,1-.36,5.75c-2.3,4.86-8,9.55-13.36,9.55-4.42,0-7-2.3-7.69-5.57-2.57,2.47-6.55,5.22-10.09,5.22-5.22,0-8-3.81-8-9,0-3.8,1.59-8.76,4.78-13.18C659.44,71,666.69,66.88,671.2,66.88ZM668.11,86.7c3.45-6,5-10.35,5-12.66,0-1.06-.18-1.68-1.06-1.68-1.77,0-7.88,5.58-12.39,12.83-2.65,4.16-4.16,8.85-4.16,11.68,0,1.59.36,2.65,1.24,2.65C659.7,99.52,663.77,94.13,668.11,86.7Z"/><path class="cls-2" d="M711.46,72.81c1.32,2.92-.09,6.19-1.77,9.64a27.47,27.47,0,0,0-1.59,3.63c-.62,1.68-1.42,1.85-3.19,1a5.94,5.94,0,0,1-3.1-5c0-1.15.45-2.92,2-6.55.88-1.77,1.5-3.36,1.15-3.71-1.06-.89-6.81,4.86-10.35,12A24.06,24.06,0,0,0,692,93.69c0,3.89,1.6,6.28,4,6.37,6.64.08,12.74-6.73,16.28-12,.8-1.32,2.13-1.68,2.66-.17a7,7,0,0,1-1.15,5.92,22.32,22.32,0,0,1-17.43,9.74c-8.14.08-12.65-5.14-12.65-12.21A22.31,22.31,0,0,1,686.42,81c4.51-9.11,11.5-13.89,16.63-13.89C706.33,67.14,710,70.15,711.46,72.81Z"/></g></svg>