<svg id="Слой_17" data-name="Слой 17" xmlns="http://www.w3.org/2000/svg" viewBox="0 0 1451.34 1451.34"><defs><style>.cls-1,.cls-2{fill:none;stroke:#808285;stroke-miterlimit:10;stroke-width:80px;}.cls-2{stroke-linecap:round;}</style></defs><title>kitchen-type</title><path class="cls-1" d="M1046.47,898.09V1192a129.6,129.6,0,0,1-129.6,129.6H555.75A129.6,129.6,0,0,1,426.14,1192V894.3"/><path class="cls-1" d="M1086.83,297.94c-69-129.15-205.1-217-361.75-217s-292.77,87.89-361.76,217C197.41,298.55,63.1,433.22,63.1,599.28,63.1,765.71,198,900.62,364.44,900.62a302.85,302.85,0,0,0,61.7-6.32,299.72,299.72,0,0,0,103.67-43.09,410.54,410.54,0,0,0,390.53,0,299.88,299.88,0,0,0,165.37,49.41c166.43,0,301.35-134.91,301.35-301.34C1387.06,433.22,1252.74,298.55,1086.83,297.94Z"/><path class="cls-2" d="M1078.48,696.44c-71,122.1-203.19,204.18-354.59,204.18-143.77,0-270.25-74-343.41-186"/><path class="cls-2" d="M316.9,442C341,238.63,514,80.9,723.89,80.9c208.45,0,380.56,155.62,406.48,357"/></svg>