<svg xmlns="http://www.w3.org/2000/svg" viewBox="0 0 240 50"><defs><style>.cls-1{fill:#f8ea54;}</style></defs><g id="Слой_2" data-name="Слой 2"><g id="Слой_1-2" data-name="Слой 1"><path class="cls-1" d="M24.3,0H215.7C229.12,0,240,11.19,240,25h0c0,13.8-10.88,25-24.3,25H24.3C10.88,50,0,38.78,0,25H0C0,11.19,10.88,0,24.3,0Z"/></g><path d="M29.31,19.85H30v6.53c0,.47,0,1.25-.05,2.34h0l5.9-8.87h.71v10H35.9V23.35q0-1.11.09-2.4h-.06L30,29.84h-.7Z"/><path d="M42.2,30a3.17,3.17,0,0,1-2.49-1,4,4,0,0,1-.9-2.8,4.11,4.11,0,0,1,.93-2.87,3.29,3.29,0,0,1,2.57-1,5.21,5.21,0,0,1,1.84.33l-.18.6a5.58,5.58,0,0,0-1.68-.32,2.53,2.53,0,0,0-2.07.85,3.69,3.69,0,0,0-.7,2.43,3.58,3.58,0,0,0,.7,2.35,2.41,2.41,0,0,0,2,.85A4.88,4.88,0,0,0,44.07,29v.63A4.3,4.3,0,0,1,42.2,30Z"/><path d="M49.92,22.41h.84L47.43,26,51,29.84h-.91l-3.51-3.77v3.77h-.69V22.41h.69V26Z"/><path d="M56.83,29.84l-.18-1.17h0a3.63,3.63,0,0,1-1.15,1,3.07,3.07,0,0,1-1.4.3,2.42,2.42,0,0,1-1.7-.56,2,2,0,0,1-.61-1.55,1.9,1.9,0,0,1,.91-1.69,4.88,4.88,0,0,1,2.62-.64l1.41,0V25a2.5,2.5,0,0,0-.43-1.6,1.68,1.68,0,0,0-1.39-.54,4.7,4.7,0,0,0-2.14.57l-.25-.59a5.7,5.7,0,0,1,2.42-.57,2.38,2.38,0,0,1,1.83.64,2.79,2.79,0,0,1,.6,2v4.94Zm-2.74-.48a2.36,2.36,0,0,0,2.56-2.57v-.73l-1.29.06a5,5,0,0,0-2.24.48A1.61,1.61,0,0,0,52.88,29,1.79,1.79,0,0,0,54.09,29.36Z"/><path d="M64.45,23H62v6.84H61.3V23H58.77v-.59h5.68Z"/><path d="M66.65,25.54h2.62c1.74,0,2.61.69,2.61,2.06a2,2,0,0,1-.73,1.65,3.26,3.26,0,0,1-2.1.59H66V22.41h.68Zm0,.64v3h2.51a2.36,2.36,0,0,0,1.49-.41,1.44,1.44,0,0,0,.52-1.2,1.27,1.27,0,0,0-.46-1.08,2.83,2.83,0,0,0-1.59-.33Z"/><path d="M80.75,30a2.71,2.71,0,0,1-2.5-1.29h0l0,.58c0,.33,0,.7,0,1.1V33.2h-.68V22.41h.58l.13,1.06h0a2.68,2.68,0,0,1,2.44-1.2,2.77,2.77,0,0,1,2.3,1,4.52,4.52,0,0,1,.79,2.87A4.37,4.37,0,0,1,83,29,2.8,2.8,0,0,1,80.75,30Zm0-.6a2.06,2.06,0,0,0,1.76-.85,3.93,3.93,0,0,0,.63-2.37c0-2.19-.79-3.28-2.37-3.28a2.35,2.35,0,0,0-1.9.72,3.52,3.52,0,0,0-.61,2.32v.22a4.09,4.09,0,0,0,.58,2.49A2.28,2.28,0,0,0,80.74,29.38Z"/><path d="M88.91,30a3.26,3.26,0,0,1-2.53-1,4,4,0,0,1-.91-2.8,4.36,4.36,0,0,1,.88-2.84,2.87,2.87,0,0,1,2.36-1.07,2.55,2.55,0,0,1,2.07.91,3.76,3.76,0,0,1,.76,2.49v.55H86.19a3.46,3.46,0,0,0,.71,2.34,2.55,2.55,0,0,0,2,.8A6.08,6.08,0,0,0,90,29.27a6.26,6.26,0,0,0,1.22-.38v.62a5.71,5.71,0,0,1-1.16.37A7,7,0,0,1,88.91,30Zm-.2-7.11a2.18,2.18,0,0,0-1.72.71,3.27,3.27,0,0,0-.76,2h4.59a3.26,3.26,0,0,0-.56-2A1.83,1.83,0,0,0,88.71,22.87Z"/><path d="M100.37,32.36h-.68V29.84h-6.1V22.41h.68V29.2H98.7V22.41h.67V29.2h1Z"/><path d="M105,30a3.28,3.28,0,0,1-2.53-1,4,4,0,0,1-.9-2.8,4.36,4.36,0,0,1,.87-2.84,2.88,2.88,0,0,1,2.36-1.07,2.53,2.53,0,0,1,2.07.91,3.76,3.76,0,0,1,.76,2.49v.55h-5.35a3.57,3.57,0,0,0,.71,2.34,2.55,2.55,0,0,0,2,.8,6.19,6.19,0,0,0,1.12-.09,6.47,6.47,0,0,0,1.22-.38v.62a5.91,5.91,0,0,1-1.16.37A7.12,7.12,0,0,1,105,30Zm-.2-7.11a2.2,2.2,0,0,0-1.72.71,3.33,3.33,0,0,0-.76,2h4.59a3.19,3.19,0,0,0-.56-2A1.83,1.83,0,0,0,104.75,22.87Z"/><path d="M110.31,29.84h-.68V22.41h5.93v7.43h-.68V23.05h-4.57Z"/><path d="M122.76,23h-2.47v6.84h-.67V23h-2.54v-.59h5.68Z"/><path d="M212.08,31.71l-4.21-4.22A5.56,5.56,0,0,0,209,24.12a5.62,5.62,0,1,0-5.62,5.62,5.56,5.56,0,0,0,3.37-1.13L211,32.82a.76.76,0,0,0,1.11,0A.78.78,0,0,0,212.08,31.71Zm-12.73-7.59a4,4,0,1,1,4,4A4,4,0,0,1,199.35,24.12Z"/></g></svg>