<svg id="info" xmlns="http://www.w3.org/2000/svg" viewBox="0 0 16 16"><defs><style>.cls-1{fill:#f8e949;}.cls-2{fill:#030202;}</style></defs><circle class="cls-1" cx="7.99" cy="8.01" r="7.99"/><path class="cls-2" d="M14,6.42c-.06-.11-.3-.19-.64-.24s-.65-.07-1.07-.09a10.17,10.17,0,0,0-3.71.33h0a2.06,2.06,0,0,1-.54.2,2.2,2.2,0,0,1-.54-.2,9.76,9.76,0,0,0-3.72-.33c-.42,0-.8,0-1.07.08s-.58.13-.64.24a.28.28,0,0,0,0,.13l0,.69c0,.25.16.27.35.3s.23,0,.25.28a3.36,3.36,0,0,1,0,.45c0,.17,0,.39,0,.64V9a1.49,1.49,0,0,0,.69,1.25,3.09,3.09,0,0,0,1.48.41h.36A2.83,2.83,0,0,0,7,10.09,3.46,3.46,0,0,0,8,8.56H8a3.87,3.87,0,0,0,1.05,1.53,2.81,2.81,0,0,0,1.82.62h.36a3,3,0,0,0,1.48-.42A1.46,1.46,0,0,0,13.4,9V8.9c0-.25,0-.47,0-.64s0-.33,0-.45.15-.27.25-.28.34,0,.35-.3l0-.69A.24.24,0,0,0,14,6.42ZM5.14,9.76c-.8,0-1.48-.26-1.49-1l0-1.51C3.63,7.14,7.05,6.5,7,8,6.76,9,6.25,9.75,5.14,9.76Zm5.73,0C9.75,9.74,9.25,9,9,8c0-1.45,3.33-.83,3.39-.73l0,1.51C12.35,9.5,11.67,9.77,10.87,9.76Z"/></svg>