<svg id="Слой_1" data-name="Слой 1" xmlns="http://www.w3.org/2000/svg" viewBox="0 0 130 34"><defs><style>.cls-1{fill:#f8e847;}.cls-2{fill:#fff;}</style></defs><title>logo-foodclub</title><path class="cls-1" d="M16.15,9.47a5.88,5.88,0,0,0-10.68,0,5.52,5.52,0,0,0,0,11,5.44,5.44,0,0,0,.57,0v6.5h9.42V21.23h.1a5.89,5.89,0,0,0,.54-11.76Z"/><path class="cls-2" d="M33.53,13.21h4.21v2H33.53v9.15H31V15.23H29.23v-2H31v-1c0-2.55,1.33-3.82,4-3.82A6.69,6.69,0,0,1,38,9l-.58,2a4.86,4.86,0,0,0-2-.47c-1.33,0-1.88.55-1.88,1.8Z"/><path class="cls-2" d="M39.27,18.81C39.27,15.3,41.8,13,45.6,13s6.32,2.35,6.32,5.86-2.53,5.83-6.32,5.83S39.27,22.31,39.27,18.81Zm10,0a3.45,3.45,0,0,0-3.7-3.64,3.46,3.46,0,0,0-3.71,3.64,3.45,3.45,0,0,0,3.71,3.61A3.44,3.44,0,0,0,49.3,18.81Z"/><path class="cls-2" d="M54,18.81C54,15.3,56.53,13,60.33,13s6.32,2.35,6.32,5.86-2.53,5.83-6.32,5.83S54,22.31,54,18.81Zm10,0a3.71,3.71,0,0,0-7.42,0,3.71,3.71,0,0,0,7.42,0Z"/><path class="cls-2" d="M80.9,8.62V24.38H78.32V22.27A5,5,0,0,1,74,24.64c-3.11,0-5.24-2.37-5.24-5.83S70.91,13,74,13a5,5,0,0,1,4.3,2.37V8.62Zm-2.58,8.46a4.53,4.53,0,0,0-3.64-1.91c-2,0-3.28,1.42-3.28,3.64s1.27,3.61,3.28,3.61a4.47,4.47,0,0,0,3.64-1.9Z"/><path class="cls-2" d="M83.69,18.85c0-3.62,2.58-5.9,6.42-5.9a7.56,7.56,0,0,1,4.26,1.17l-.8,2a6.2,6.2,0,0,0-3.35-1c-2.36,0-3.89,1.42-3.89,3.66s1.53,3.59,4.06,3.59a5.9,5.9,0,0,0,3.51-1.11l.89,2.07a8.3,8.3,0,0,1-4.57,1.26C86.18,24.64,83.69,22.38,83.69,18.85Z"/><path class="cls-2" d="M97.18,8.62h2.58V24.38H97.18Z"/><path class="cls-2" d="M114.38,13.21V24.38h-2.57V22.27a5.5,5.5,0,0,1-4.58,2.37c-2.61,0-4.17-1.57-4.17-4.24V13.21h2.58v6.68a2.24,2.24,0,0,0,2.53,2.53,4.47,4.47,0,0,0,3.64-1.9V13.21Z"/><path class="cls-2" d="M130,18.81c0,3.46-2.13,5.83-5.24,5.83a5,5,0,0,1-4.3-2.37v2.11h-2.58V8.62h2.58v6.7a5,5,0,0,1,4.3-2.37C127.87,13,130,15.32,130,18.81Zm-2.62,0c0-2.22-1.29-3.64-3.28-3.64a4.51,4.51,0,0,0-3.64,1.91v3.44a4.44,4.44,0,0,0,3.64,1.9C126.09,22.42,127.38,21,127.38,18.81Z"/></svg>