<svg id="Слой_1" data-name="Слой 1" xmlns="http://www.w3.org/2000/svg" viewBox="0 0 40 40"><defs><style>.cls-1{fill:#e42313;}.cls-2{fill:#d21216;}.cls-3{fill:#f5afb2;}.cls-4{fill:#fff;}</style></defs><title>zen-logo</title><path class="cls-1" d="M27.05,1.3,14.25,11.93l-1.32-.52V6.71L21.15.06C20.77,0,20.39,0,20,0a20,20,0,0,0-7.07,38.69V38L26,27.43l1.07.41v4.74l-8.83,7.33c.58.05,1.16.09,1.75.09A20,20,0,0,0,27.05,1.3Z"/><path class="cls-2" d="M27.08,27.84,26,27.43,12.93,38v.68a19.64,19.64,0,0,0,5.32,1.22l8.83-7.33Z"/><polygon class="cls-3" points="27.07 16.94 14.25 27.59 12.92 27.07 12.92 22.37 26.01 11.78 27.07 12.2 27.07 16.94"/><path class="cls-2" d="M12.93,11.41l1.32.52L27.05,1.3A19.88,19.88,0,0,0,21.15.06L12.93,6.71Z"/><polygon class="cls-4" points="27.07 32.59 12.92 27.07 12.92 22.37 27.07 27.85 27.07 32.59"/><polygon class="cls-4" points="27.07 16.94 12.92 11.42 12.92 6.72 27.07 12.2 27.07 16.94"/></svg>