<svg id="Слой_1_копия_" data-name="Слой 1 (копия)" xmlns="http://www.w3.org/2000/svg" viewBox="0 0 120 40"><defs><style>.cls-1{fill:#e42313;}.cls-2{fill:#f5afb2;}.cls-3{fill:#fff;}</style></defs><title>open-logo</title><rect class="cls-1" width="120" height="40" rx="19.93"/><polygon class="cls-2" points="27.07 16.94 14.25 27.59 12.92 27.07 12.92 22.37 26.01 11.78 27.07 12.2 27.07 16.94"/><polygon class="cls-3" points="27.07 32.59 12.92 27.07 12.92 22.37 27.07 27.85 27.07 32.59"/><polygon class="cls-3" points="27.07 16.94 12.92 11.42 12.92 6.72 27.07 12.2 27.07 16.94"/><g id="Слой_3" data-name="Слой 3"><path class="cls-3" d="M41.45,11.4H39v6.31h-.75v-7h4v7h-.75Z"/><path class="cls-3" d="M43.21,15.21a3.36,3.36,0,0,1,.46-2A1.53,1.53,0,0,1,45,12.59a1.52,1.52,0,0,1,1.35.65,3.57,3.57,0,0,1,.44,2,3.37,3.37,0,0,1-.47,2,1.57,1.57,0,0,1-1.32.63,1.52,1.52,0,0,1-1.36-.65A3.58,3.58,0,0,1,43.21,15.21Zm.75,0a5,5,0,0,0,0,.8,2.4,2.4,0,0,0,.18.62,1,1,0,0,0,.33.41.83.83,0,0,0,.48.14.85.85,0,0,0,.78-.46A3.32,3.32,0,0,0,46,15.21a4.79,4.79,0,0,0-.06-.79,2.37,2.37,0,0,0-.18-.63,1,1,0,0,0-.32-.4.81.81,0,0,0-.48-.15.86.86,0,0,0-.78.47A3.15,3.15,0,0,0,44,15.21Z"/><path class="cls-3" d="M51.39,19h-.5l-.12-1.27h-3L47.68,19h-.49V17.06h.47a3.54,3.54,0,0,0,.16-.4,6.32,6.32,0,0,0,.21-.82c.06-.35.12-.79.17-1.3s.08-1.12.09-1.83H50.8v4.35h.59Zm-1.31-1.92v-3.7H49c0,.29,0,.6-.06.94s-.06.68-.1,1-.11.66-.17,1a5.78,5.78,0,0,1-.23.78Z"/><path class="cls-3" d="M54.54,13.36H52.86v4.35h-.72v-5h3.12v5h-.72Z"/><path class="cls-3" d="M58.93,14.83l.06-.76h0l-.35.84-1.69,2.8h-.47v-5h.72v3l-.06.73h0l.33-.82,1.71-2.88h.47v5h-.72Z"/><path class="cls-3" d="M60.83,17.71v-5h.71v4.35h1.31V12.71h.72v4.35h1.3V12.71h.71v5Z"/><path class="cls-3" d="M69.26,14.83l.06-.76h0l-.35.84-1.69,2.8h-.47v-5h.72v3l-.06.73h0l.33-.82,1.71-2.88H70v5h-.72Z"/><path class="cls-3" d="M73.76,13.36H72.53v4.35h-.72V13.36H70.58v-.65h3.18Z"/><path class="cls-3" d="M77.23,17.37a1.64,1.64,0,0,1-.61.34,2.54,2.54,0,0,1-.78.12,1.74,1.74,0,0,1-.82-.18,1.61,1.61,0,0,1-.57-.53,2.49,2.49,0,0,1-.33-.83,5.09,5.09,0,0,1-.1-1.08,3.35,3.35,0,0,1,.47-2,1.51,1.51,0,0,1,1.33-.67,2.08,2.08,0,0,1,.55.07,1.19,1.19,0,0,1,.5.28,1.59,1.59,0,0,1,.35.59,3,3,0,0,1,.14,1c0,.11,0,.24,0,.37l0,.4H74.77a3.71,3.71,0,0,0,.07.78,1.78,1.78,0,0,0,.22.6,1.06,1.06,0,0,0,.38.38,1.17,1.17,0,0,0,.59.13,1.42,1.42,0,0,0,.53-.1,1.14,1.14,0,0,0,.41-.24Zm-.56-2.68a2,2,0,0,0-.21-1.1.74.74,0,0,0-.63-.35.88.88,0,0,0-.73.35,2,2,0,0,0-.32,1.1Z"/><path class="cls-3" d="M81,17.46a1.55,1.55,0,0,1-.56.28,2.52,2.52,0,0,1-.67.09,1.65,1.65,0,0,1-.81-.18,1.52,1.52,0,0,1-.54-.53,2.47,2.47,0,0,1-.3-.83,6,6,0,0,1-.09-1.08,3.52,3.52,0,0,1,.45-2,1.48,1.48,0,0,1,1.31-.67,2.7,2.7,0,0,1,.67.07,2.67,2.67,0,0,1,.48.18l-.2.63a1.77,1.77,0,0,0-.87-.23.88.88,0,0,0-.82.48,3.11,3.11,0,0,0-.27,1.49,3.82,3.82,0,0,0,.06.77,1.94,1.94,0,0,0,.2.63,1.22,1.22,0,0,0,.36.42.94.94,0,0,0,.55.15,1.28,1.28,0,0,0,.48-.09,1.22,1.22,0,0,0,.36-.21Z"/><path class="cls-3" d="M82.57,14.62a2.65,2.65,0,0,1,.38,0l.34,0a1.88,1.88,0,0,1,.71.12,1.21,1.21,0,0,1,.47.31,1.24,1.24,0,0,1,.26.48,2.14,2.14,0,0,1,.08.58,1.73,1.73,0,0,1-.44,1.32,2,2,0,0,1-1.38.41,10.33,10.33,0,0,1-1.14-.06v-5h.72Zm0,2.44a2.8,2.8,0,0,0,.55.06c.62,0,.94-.33.94-1a1.07,1.07,0,0,0-.22-.7.88.88,0,0,0-.7-.26l-.28,0a1.35,1.35,0,0,0-.29.05Z"/><path class="cls-3" d="M40.62,25.48H38.89v2.23h-.72v-5h.72v2.12h1.73V22.71h.72v5h-.72Z"/><path class="cls-3" d="M42.46,23a2.38,2.38,0,0,1,.7-.28,3.6,3.6,0,0,1,.88-.1,1.43,1.43,0,0,1,.67.13,1,1,0,0,1,.4.34,1.12,1.12,0,0,1,.19.49,3.45,3.45,0,0,1,.05.57q0,.6,0,1.17t0,1.08c0,.25,0,.49,0,.71a3.88,3.88,0,0,0,.1.61h-.57l-.17-.59h0a1.45,1.45,0,0,1-.44.45,1.35,1.35,0,0,1-.77.19,1.13,1.13,0,0,1-.88-.37,1.48,1.48,0,0,1-.34-1,1.54,1.54,0,0,1,.14-.72,1.24,1.24,0,0,1,.41-.47,1.65,1.65,0,0,1,.62-.25,4,4,0,0,1,.81-.08h.41c0-.21,0-.39,0-.55a1.42,1.42,0,0,0-.17-.8.73.73,0,0,0-.62-.23,2.3,2.3,0,0,0-.6.09,1.86,1.86,0,0,0-.55.21Zm2.15,2.42h-.4a2.32,2.32,0,0,0-.46,0,1.24,1.24,0,0,0-.41.14.73.73,0,0,0-.38.7.9.9,0,0,0,.19.62.62.62,0,0,0,.5.22,1,1,0,0,0,.64-.2,1.11,1.11,0,0,0,.32-.44Z"/><path class="cls-3" d="M51.08,25.48H49.35v2.23h-.72v-5h.72v2.12h1.73V22.71h.72v5h-.72Z"/><path class="cls-3" d="M52.92,23a2.38,2.38,0,0,1,.7-.28,3.6,3.6,0,0,1,.88-.1,1.43,1.43,0,0,1,.67.13,1,1,0,0,1,.4.34,1.12,1.12,0,0,1,.19.49,3.45,3.45,0,0,1,.05.57q0,.6,0,1.17t0,1.08c0,.25,0,.49,0,.71a3.88,3.88,0,0,0,.1.61h-.57l-.17-.59h0a1.45,1.45,0,0,1-.44.45,1.35,1.35,0,0,1-.77.19,1.13,1.13,0,0,1-.88-.37,1.48,1.48,0,0,1-.34-1,1.54,1.54,0,0,1,.14-.72,1.24,1.24,0,0,1,.41-.47,1.65,1.65,0,0,1,.62-.25,4,4,0,0,1,.81-.08h.41c0-.21,0-.39,0-.55a1.42,1.42,0,0,0-.17-.8.73.73,0,0,0-.62-.23,2.3,2.3,0,0,0-.6.09,1.86,1.86,0,0,0-.55.21Zm2.15,2.42h-.4a2.32,2.32,0,0,0-.46,0,1.24,1.24,0,0,0-.41.14.73.73,0,0,0-.38.7.9.9,0,0,0,.19.62.62.62,0,0,0,.5.22,1,1,0,0,0,.64-.2,1.11,1.11,0,0,0,.32-.44Z"/><path class="cls-3" d="M57,27.71v-5h.72v4.35H59V22.71h.72v4.35H61V22.71h.72v5Z"/><path class="cls-3" d="M68.41,27.71h-.75V24.64l-.8.21L65.5,27.71h-.86l1.22-2.53.48-.42a1.68,1.68,0,0,1-1-.64A2.3,2.3,0,0,1,65,22.75a2.58,2.58,0,0,1,.17-1,1.57,1.57,0,0,1,.46-.65,1.51,1.51,0,0,1,.68-.34,3.15,3.15,0,0,1,.83-.1l.6,0a3.29,3.29,0,0,1,.64.12Zm-1.3-6.39a1.53,1.53,0,0,0-.49.07.93.93,0,0,0-.41.23,1.09,1.09,0,0,0-.29.44,1.94,1.94,0,0,0-.1.69,1.44,1.44,0,0,0,.37,1.11,1.29,1.29,0,0,0,.93.34h.54V21.38a1,1,0,0,0-.24-.05Z"/><path class="cls-3" d="M72.09,25.48H70.36v2.23h-.72v-5h.72v2.12h1.73V22.71h.72v5h-.72Z"/><path class="cls-3" d="M77.62,29h-.5L77,27.71H74L73.91,29h-.49V27.06h.47a3.54,3.54,0,0,0,.16-.4,6.32,6.32,0,0,0,.21-.82c.06-.35.12-.79.17-1.3s.08-1.12.09-1.83H77v4.35h.59Zm-1.31-1.92v-3.7H75.18c0,.29,0,.6-.06.94s-.06.68-.1,1-.11.65-.17,1a5.78,5.78,0,0,1-.23.78Z"/><path class="cls-3" d="M81.36,27.37a1.64,1.64,0,0,1-.61.34,2.54,2.54,0,0,1-.78.12,1.74,1.74,0,0,1-.82-.18,1.61,1.61,0,0,1-.57-.53,2.49,2.49,0,0,1-.33-.83,5.09,5.09,0,0,1-.1-1.08,3.35,3.35,0,0,1,.47-1.95A1.51,1.51,0,0,1,80,22.59a2.08,2.08,0,0,1,.55.07,1.19,1.19,0,0,1,.5.28,1.59,1.59,0,0,1,.35.59,3,3,0,0,1,.14,1c0,.11,0,.24,0,.37l0,.4H78.9a3.71,3.71,0,0,0,.07.78,1.59,1.59,0,0,0,.22.6,1.06,1.06,0,0,0,.38.38,1.17,1.17,0,0,0,.59.13,1.46,1.46,0,0,0,.53-.1,1.3,1.3,0,0,0,.41-.24Zm-.57-2.68a1.84,1.84,0,0,0-.21-1.1.71.71,0,0,0-.62-.35.88.88,0,0,0-.73.35,1.92,1.92,0,0,0-.32,1.1Z"/><path class="cls-3" d="M83.58,25.46h-.37v2.25H82.5v-5h.71V25l.35-.14,1.22-2.12h.76l-1.18,2-.36.33.44.4,1.27,2.26h-.85Z"/><path class="cls-3" d="M89,27.46a1.55,1.55,0,0,1-.56.28,2.52,2.52,0,0,1-.67.09,1.65,1.65,0,0,1-.81-.18,1.52,1.52,0,0,1-.54-.53,2.47,2.47,0,0,1-.3-.83,6,6,0,0,1-.09-1.08,3.52,3.52,0,0,1,.45-1.95,1.48,1.48,0,0,1,1.31-.67,2.7,2.7,0,0,1,.67.07,2.67,2.67,0,0,1,.48.18l-.2.63a1.77,1.77,0,0,0-.87-.23.88.88,0,0,0-.82.48,3.11,3.11,0,0,0-.27,1.49,3.82,3.82,0,0,0,.06.77,1.94,1.94,0,0,0,.2.63,1.22,1.22,0,0,0,.36.42.94.94,0,0,0,.55.15,1.28,1.28,0,0,0,.48-.09,1.22,1.22,0,0,0,.36-.21Z"/><path class="cls-3" d="M96.4,29h-.53l-.12-1.29H91.87L91.75,29h-.53V27h.58A4.35,4.35,0,0,0,92,26.5a8.73,8.73,0,0,0,.27-1.17c.09-.51.17-1.15.24-1.91s.09-1.67.09-2.71h3.08V27h.73Zm-1.48-2V21.4H93.31A30.23,30.23,0,0,1,93.05,25a11.79,11.79,0,0,1-.46,2Z"/><path class="cls-3" d="M97.58,25.45v-.6h.54a.67.67,0,0,0,.28-.06,1.08,1.08,0,0,0,.24-.18.85.85,0,0,0,.17-.25.82.82,0,0,0,.07-.31.71.71,0,0,0-.21-.57.92.92,0,0,0-.62-.18,1.7,1.7,0,0,0-.57.09,1.41,1.41,0,0,0-.39.19L96.88,23a2.21,2.21,0,0,1,.58-.26,2.57,2.57,0,0,1,.77-.1,1.47,1.47,0,0,1,1,.31,1.11,1.11,0,0,1,.36.91,1.44,1.44,0,0,1-.19.7,1.16,1.16,0,0,1-.52.46v0a1,1,0,0,1,.66.42,1.51,1.51,0,0,1,.2.82,1.46,1.46,0,0,1-.42,1.06,1.76,1.76,0,0,1-1.29.42,2.63,2.63,0,0,1-.68-.07,2.18,2.18,0,0,1-.49-.2l.19-.62a1.32,1.32,0,0,0,.45.18,2.35,2.35,0,0,0,.54.06,1,1,0,0,0,.73-.23.91.91,0,0,0,.25-.67.77.77,0,0,0-.23-.58,1.14,1.14,0,0,0-.77-.21Z"/><path class="cls-3" d="M103.7,27.37a1.61,1.61,0,0,1-.62.34,2.43,2.43,0,0,1-.77.12,1.74,1.74,0,0,1-.82-.18,1.61,1.61,0,0,1-.57-.53,2.49,2.49,0,0,1-.33-.83,5.09,5.09,0,0,1-.1-1.08,3.35,3.35,0,0,1,.47-1.95,1.51,1.51,0,0,1,1.33-.67,2.08,2.08,0,0,1,.55.07,1.1,1.1,0,0,1,.49.28,1.48,1.48,0,0,1,.36.59,3,3,0,0,1,.14,1c0,.11,0,.24,0,.37l0,.4h-2.54a3.71,3.71,0,0,0,.07.78,1.59,1.59,0,0,0,.22.6,1,1,0,0,0,.38.38,1.17,1.17,0,0,0,.59.13,1.46,1.46,0,0,0,.53-.1,1.3,1.3,0,0,0,.41-.24Zm-.57-2.68a1.84,1.84,0,0,0-.21-1.1.72.72,0,0,0-.63-.35.87.87,0,0,0-.72.35,1.92,1.92,0,0,0-.32,1.1Z"/><path class="cls-3" d="M107.29,25.48h-1.74v2.23h-.72v-5h.72v2.12h1.74V22.71H108v5h-.71Z"/></g></svg>