<svg id="INSTAGRAM" xmlns="http://www.w3.org/2000/svg" viewBox="0 0 24 24"><defs><style>.cls-1{fill:#fff;}</style></defs><path class="cls-1" d="M15.64,2.81H9A5.51,5.51,0,0,0,3.49,8.3v6.58A5.5,5.5,0,0,0,9,20.36h6.63a5.5,5.5,0,0,0,5.53-5.48V8.3A5.51,5.51,0,0,0,15.64,2.81Zm3.87,12.07a3.85,3.85,0,0,1-3.87,3.84H9a3.85,3.85,0,0,1-3.86-3.84V8.3A3.85,3.85,0,0,1,9,4.46h6.63A3.85,3.85,0,0,1,19.51,8.3Z"/><path class="cls-1" d="M12.33,7.2a4.39,4.39,0,1,0,4.42,4.39A4.41,4.41,0,0,0,12.33,7.2Zm0,7.13a2.74,2.74,0,1,1,2.76-2.74A2.75,2.75,0,0,1,12.33,14.33Z"/></svg>